<svg width="106" height="34" xmlns="http://www.w3.org/2000/svg" xmlns:xlink="http://www.w3.org/1999/xlink" xml:space="preserve" overflow="hidden"><defs><clipPath id="clip0"><rect x="587" y="450" width="106" height="34"/></clipPath></defs><g clip-path="url(#clip0)" transform="translate(-587 -450)"><path d="M12.4614 28.1263 12.5182 28.1572 12.5835 28.1899 12.6868 28.2381C12.8416 28.3086 13.079 28.4102 13.399 28.5237 14.3343 28.8447 15.2902 29.1023 16.2602 29.2945 18.7721 29.8209 22.4436 30.2304 26.8652 30.2975 29.0777 30.3371 31.476 30.2837 34.0086 30.153L34.9652 30.1048 35.9338 30.0394C36.5841 29.9913 37.2413 29.962 37.9054 29.9035L39.9184 29.747 41.9692 29.5646C44.722 29.3065 47.5779 29.033 50.4683 28.6717 51.9135 28.4996 53.3673 28.2983 54.828 28.1005 55.5592 28.0058 56.2887 27.8906 57.0199 27.7822L59.2152 27.4519 61.4071 27.0957C62.1366 26.9753 62.866 26.8669 63.5921 26.7361L67.9328 25.9791C70.8129 25.463 73.6517 24.9778 76.4044 24.546 81.91 23.6703 87.0714 22.9528 91.5067 22.4814 93.7279 22.2577 95.7701 22.0943 97.5852 22.0083 99.1563 21.919 100.731 21.9126 102.303 21.9894 102.891 22.0203 103.477 22.0869 104.058 22.1889 104.503 22.2579 104.937 22.387 105.348 22.5726 105.512 22.65 105.661 22.7553 105.788 22.884 105.9 22.9979 105.973 23.1443 105.997 23.3021 106.009 23.4062 105.994 23.5116 105.954 23.6083 105.944 23.6341 105.932 23.6589 105.917 23.6823L105.897 23.715C105.818 23.8024 105.683 23.8089 105.596 23.73 105.522 23.663 105.504 23.5541 105.553 23.4672 105.565 23.4327 105.569 23.3955 105.565 23.3588 105.552 23.2948 105.517 23.2372 105.467 23.1954 105.373 23.1113 105.265 23.0437 105.148 22.9958 104.773 22.8449 104.379 22.7448 103.977 22.6982 103.414 22.6242 102.848 22.5817 102.28 22.5709 100.73 22.5473 99.1795 22.6048 97.6351 22.7429 95.8406 22.8857 93.8173 23.1111 91.6134 23.4019 87.2073 23.9679 82.0872 24.8023 76.6178 25.8019 73.8839 26.3043 71.0624 26.8342 68.1961 27.3934 66.7664 27.6755 65.3091 27.9439 63.8553 28.2226 62.4015 28.5013 60.9305 28.7388 59.4664 29.0003L57.2625 29.3564C56.5278 29.4734 55.7966 29.599 55.062 29.7005 53.5944 29.9173 52.1372 30.1392 50.6782 30.3233 47.7723 30.719 44.9009 31.0408 42.1137 31.2644 39.3265 31.4881 36.622 31.6085 34.0567 31.6412 31.4915 31.6739 29.0674 31.6412 26.8308 31.5208 24.5941 31.4003 22.5382 31.2094 20.7282 30.9685 19.1647 30.7555 17.6138 30.4568 16.083 30.0739 15.0913 29.8232 14.1186 29.503 13.1719 29.1155 12.8433 28.9779 12.5956 28.8575 12.4287 28.7715L12.3186 28.713 12.2343 28.6648 12.1741 28.6269C12.0385 28.5481 11.9924 28.3745 12.0711 28.239 12.0716 28.2381 12.0721 28.2372 12.0726 28.2364 12.1501 28.0993 12.3235 28.0502 12.4614 28.1263ZM0 33.4081C0.0367249 33.5742 0.201125 33.6791 0.367195 33.6423 0.367524 33.6423 0.367852 33.6421 0.368181 33.6421L0.593563 33.5922C0.743244 33.5578 0.960023 33.5131 1.25939 33.4202 1.40907 33.3806 1.57595 33.3341 1.75144 33.2722 1.92693 33.2103 2.12478 33.1466 2.32952 33.0606L2.65125 32.9298 2.99534 32.775C3.23105 32.6718 3.46847 32.5358 3.7231 32.3965 4.27775 32.0744 4.80691 31.7104 5.30594 31.3074 5.88926 30.8286 6.43617 30.307 6.9421 29.747 7.51012 29.1174 8.04202 28.4563 8.53526 27.7667 9.06001 27.0475 9.55206 26.2596 10.051 25.4372 10.5499 24.6148 11.0179 23.7374 11.4996 22.8341 11.7405 22.3816 11.971 21.9171 12.2085 21.4474 12.4459 20.9777 12.6799 20.4977 12.9087 20.0108L13.2528 19.2762C13.3675 19.0272 13.4822 18.7777 13.5969 18.5278L14.2851 17.0137C14.7599 15.9815 15.2503 14.9836 15.7784 13.9565 16.3066 12.9293 16.8417 11.9091 17.3854 10.8596 17.652 10.3435 17.9239 9.81185 18.2112 9.29399 18.4985 8.77613 18.8013 8.26171 19.1041 7.75417 19.4069 7.24663 19.7321 6.74425 20.0745 6.25736 20.4124 5.76996 20.7764 5.30131 21.1652 4.85345 21.5479 4.41009 21.9746 4.0066 22.4384 3.64912 22.8861 3.29166 23.3902 3.01138 23.93 2.81985 24.0075 2.79233 24.0746 2.77168 24.1417 2.75276 24.2088 2.73383 24.2793 2.71318 24.3498 2.69426 24.488 2.65696 24.6291 2.6305 24.7714 2.61512 25.042 2.57768 25.3167 2.58465 25.5851 2.63576 25.8059 2.66546 26.0082 2.7743 26.1546 2.94201 26.2067 3.00723 26.237 3.08737 26.2406 3.17083 26.2413 3.27153 26.214 3.37044 26.1615 3.45643 26.0997 3.56234 26.0192 3.65619 25.9241 3.73342 25.8183 3.81616 25.7028 3.8855 25.58 3.93988 25.3192 4.0486 25.0439 4.11817 24.7628 4.14634 24.4742 4.17762 24.1833 4.18223 23.8939 4.1601L22.9786 4.0844 21.1377 3.933C20.5252 3.88655 19.9127 3.85042 19.2985 3.83493 18.0822 3.79634 16.8645 3.85042 15.6563 3.99666 14.4562 4.145 13.2766 4.42779 12.1396 4.83969 11.5868 5.04917 11.0468 5.29104 10.5224 5.56401 10.3899 5.62766 10.2661 5.70164 10.137 5.77046 10.008 5.83928 9.88239 5.90982 9.76024 5.98724L9.3955 6.21607 9.04108 6.45693C8.80538 6.61521 8.57999 6.78382 8.35289 6.95415L8.026 7.22598 7.94514 7.29136 7.8574 7.36362 7.70771 7.49094 7.55803 7.62169 7.39975 7.76449C7.29308 7.85912 7.19329 7.95374 7.09695 8.05181 6.90197 8.24221 6.71328 8.43776 6.53091 8.63849 5.8234 9.40642 5.22113 10.265 4.7399 11.1917 4.29056 12.0409 3.9479 12.9424 3.71966 13.8756 3.51296 14.7079 3.38792 15.5584 3.34632 16.415 3.27931 17.7936 3.44449 19.1738 3.83493 20.4977 4.08265 21.3542 4.46227 22.1667 4.96012 22.9064 5.09418 23.1015 5.24011 23.2883 5.39712 23.4655 5.50551 23.5859 5.56917 23.6376 5.56917 23.6376L5.56917 23.6376C5.68229 23.7473 5.86017 23.7532 5.98036 23.6513 6.10518 23.5433 6.12333 23.3564 6.02165 23.2264 6.02165 23.2264 5.97348 23.1713 5.88918 23.0543 5.76303 22.8866 5.64809 22.7107 5.54508 22.5279 5.15495 21.8211 4.87145 21.0603 4.70377 20.2706 4.42564 19.0434 4.3616 17.7775 4.51452 16.5286 4.65383 15.3503 4.98266 14.2023 5.48831 13.1289 5.66875 12.7343 5.87092 12.3501 6.09391 11.9779 6.57303 11.1863 7.13225 10.4461 7.76277 9.76884 7.93482 9.59679 8.09482 9.42475 8.27891 9.2527L8.54386 8.99979C8.63161 8.91721 8.71591 8.82774 8.81914 8.74688L8.9671 8.61612 9.10474 8.49913 9.39034 8.25827C9.58991 8.09998 9.78949 7.93826 9.99766 7.78686 11.7243 6.47679 13.7235 5.57185 15.8473 5.13905 18.0718 4.68312 20.4839 4.70205 22.9373 4.80528 23.247 4.81732 23.5447 4.83453 23.8681 4.84313 24.1976 4.84956 24.527 4.82594 24.8522 4.77259 25.1879 4.71802 25.5144 4.61727 25.8226 4.47323 25.9845 4.40074 26.1379 4.31075 26.2802 4.20483 26.4357 4.0965 26.5718 3.96271 26.6828 3.80912 26.8089 3.63763 26.8872 3.4358 26.9099 3.22416 26.9326 2.99343 26.8781 2.76168 26.7551 2.56522 26.6372 2.38685 26.4793 2.2384 26.294 2.13166 26.1278 2.03702 25.9495 1.96526 25.7641 1.91833 25.4196 1.83896 25.0656 1.81056 24.7129 1.83402 24.5408 1.84435 24.3688 1.85811 24.2053 1.87703 24.121 1.88736 24.0333 1.89768 23.9541 1.91144 23.875 1.92521 23.7821 1.93897 23.7098 1.95446 23.038 2.08212 22.3913 2.31801 21.7949 2.65297 21.4994 2.80982 21.2122 2.98211 20.9347 3.16911 20.6594 3.35664 20.391 3.55105 20.1312 3.75579 19.1156 4.56973 18.1795 5.47819 17.3355 6.46897 16.9071 6.94727 16.5234 7.45308 16.1415 7.95546 15.7595 8.45784 15.3965 8.97054 15.0507 9.48668 14.8786 9.74647 14.7066 10.0028 14.5535 10.2678 14.4003 10.5327 14.2214 10.7839 14.0803 11.0558 13.7793 11.5874 13.4902 12.1173 13.2201 12.6506 12.6833 13.7139 12.1775 14.8029 11.7027 15.8111L11.011 17.3424 10.6669 18.089C10.5522 18.3368 10.4421 18.5828 10.3366 18.8271L10.0097 19.5549 9.6983 20.274 9.08237 21.6779C8.6901 22.5984 8.29268 23.4741 7.90385 24.3051 7.12792 25.9636 6.35542 27.4364 5.53304 28.6235 5.15082 29.1765 4.72875 29.701 4.27021 30.1926 3.88398 30.6124 3.46642 31.0024 3.02115 31.359 2.65982 31.6462 2.28305 31.9132 1.89252 32.1591 1.72047 32.2709 1.54842 32.3604 1.40391 32.4464 1.25939 32.5324 1.11487 32.6098 0.989271 32.6735 0.746685 32.8077 0.535067 32.9006 0.397429 32.9642L0.172047 33.0606C0.0407642 33.1222-0.03058 33.2664 0 33.4081ZM76.6728 4.71409C77.7464 4.71409 78.4776 3.90891 78.8045 3.15535 79.0299 2.6392 79.0488 2.19532 78.8596 1.90628 78.6995 1.6637 78.4088 1.54842 77.9907 1.54842 76.9171 1.54842 76.1859 2.35361 75.8591 3.10717 75.6337 3.62331 75.6147 4.0672 75.804 4.35624 75.964 4.59194 76.2565 4.71409 76.6728 4.71409ZM36.8405 7.83675C37.9123 7.83675 38.6452 7.03157 38.9721 6.278 39.1958 5.76186 39.2147 5.31798 39.0255 5.02894 38.8672 4.78635 38.5747 4.66248 38.1566 4.66248 37.0848 4.66248 36.3519 5.46766 36.025 6.22123 35.8013 6.73737 35.7807 7.18297 35.9716 7.47201 36.1299 7.7146 36.4224 7.83675 36.8405 7.83675ZM49.8283 6.82511C50.9002 6.82511 51.6314 6.01993 51.96 5.26637 52.1836 4.75022 52.2026 4.30462 52.0133 4.01558 51.855 3.77299 51.5625 3.65084 51.1445 3.65084 50.0726 3.65084 49.3397 4.45602 49.0128 5.20959 48.7874 5.72573 48.7685 6.16961 48.9595 6.45865 49.1178 6.70984 49.4102 6.82511 49.8283 6.82511ZM99.5241 11.565C97.5026 15.5823 93.8466 19.6254 90.791 19.8577 90.6912 19.8577 90.5949 19.8697 90.4986 19.8697 89.6595 19.8821 88.8493 19.5638 88.243 18.9837 87.4134 18.1856 86.9699 17.0676 87.0266 15.9178 87.061 14.7909 87.4946 13.4317 88.2809 11.99 88.818 11.0216 89.4448 10.1058 90.1527 9.25442 89.7906 9.43937 89.3974 9.55602 88.9931 9.59851 88.6387 9.64185 88.2796 9.63199 87.9282 9.56927 86.5294 12.3278 84.8165 14.9154 82.8235 17.2804 80.8261 19.5979 78.9972 20.7971 77.6741 20.9209 77.6122 20.9209 77.5503 20.9209 77.4901 20.9209 77.0388 20.9275 76.6042 20.7504 76.2857 20.4306 75.7593 19.9145 75.4788 19.1643 75.5494 18.2387 75.5554 18.0698 75.5726 17.9013 75.601 17.7346 73.9545 20.1605 72.5351 21.3012 71.3824 21.4096 71.3118 21.4096 71.2413 21.4199 71.1725 21.4199 70.548 21.4302 69.9625 21.1172 69.6241 20.5923 69.202 19.9661 69.0482 19.2061 69.163 18.3127 67.8468 20.1691 66.2072 21.7898 64.6622 21.936 64.5888 21.9429 64.5165 21.9463 64.4454 21.9463 63.8412 21.9596 63.2729 21.6606 62.9417 21.1549 62.5116 20.5338 62.3705 19.7785 62.5168 18.8736 61.2626 20.7145 59.6952 22.3008 58.1726 22.4453 57.6565 22.4952 57.2143 22.2629 56.8822 21.776 56.3661 21.0173 56.2457 19.9575 56.5382 18.9665 54.9209 21.167 53.4241 22.7911 51.7879 22.9477 51.7036 22.9477 51.6159 22.9597 51.5385 22.9597 50.953 22.9652 50.3883 22.7424 49.9642 22.3386 49.2382 21.6504 48.8476 20.6388 48.8941 19.2951 48.8941 19.1592 48.9096 19.0181 48.9251 18.8753 48.753 19.1454 48.5586 19.4224 48.3625 19.6977 46.5577 22.2526 45.0282 23.4604 43.817 23.5739 43.7361 23.5739 43.6587 23.5842 43.5813 23.5842 43.0225 23.6106 42.4893 23.3471 42.1705 22.8874 41.7455 22.2715 41.6716 21.456 41.9365 20.4685 40.099 22.8479 38.5713 23.9679 37.3979 24.0814 37.3084 24.09 37.2259 24.0935 37.145 24.0935 36.5304 24.1231 35.9444 23.832 35.5966 23.3244 35.1785 22.7171 35.0804 21.9859 35.3041 21.0878 33.9277 22.8788 32.307 24.4668 31.1165 24.5787 31.0304 24.5873 30.9444 24.5907 30.8635 24.5907 30.2271 24.6165 29.6212 24.317 29.2549 23.7958 28.8506 23.2092 28.7525 22.5124 28.9573 21.6504 27.1852 23.9214 25.6884 24.9881 24.4978 25.0914 24.4135 25.0914 24.3258 25.1034 24.2501 25.1034 23.7809 25.1201 23.3236 24.9536 22.9752 24.6389 22.5819 24.2425 22.3787 23.6957 22.4178 23.1386 22.4745 21.21 23.6376 19.2435 24.663 17.3802 25.4286 15.9883 26.091 14.7857 26.115 13.9702 26.1279 13.8509 26.0877 13.732 26.0049 13.6451 25.8625 13.5407 25.6825 13.5013 25.5094 13.5367 23.8457 13.6932 21.4405 16.0967 20.1467 18.8959L17.757 24.3378C17.6013 24.7813 17.1955 25.0888 16.7264 25.1189L15.3277 25.2324C15.0748 25.2565 14.9217 25.2187 14.8442 25.112 14.7668 25.0053 14.7806 24.8144 14.9079 24.5253L20.8074 12.2154C20.9662 11.7701 21.3779 11.4645 21.85 11.4411L22.6431 11.3775C22.896 11.3534 23.0492 11.393 23.1266 11.4979 23.204 11.6029 23.1902 11.7973 23.0612 12.0863L22.2543 13.8068C23.1145 12.8898 25.2256 10.6514 27.3641 10.4519 28.1469 10.3779 28.9676 10.5689 29.4166 10.9904 29.7802 11.3314 29.9741 11.8158 29.9465 12.3134 29.9052 13.7569 28.4549 16.1896 27.3916 18.0615 26.5228 19.5945 26.1546 20.3515 26.1288 21.222 26.1032 21.4259 26.1615 21.6315 26.2905 21.7915 26.4435 21.9217 26.6429 21.9838 26.8428 21.9635 27.9336 21.9635 29.1328 20.1571 30.4558 18.1493 31.9044 15.9608 32.9797 13.504 34.1703 11.1693 34.3296 10.7239 34.742 10.4187 35.2146 10.3968L35.9923 10.3349C36.2452 10.3108 36.3983 10.3486 36.4757 10.4553 36.5532 10.562 36.5394 10.7529 36.4121 11.0437L32.455 19.794C32.2004 20.3618 32.1625 20.8143 32.3483 21.1016 32.4963 21.3287 32.787 21.4457 33.1673 21.4457 33.9982 21.4457 34.7277 20.4289 35.1819 19.856 37.2138 17.2959 38.2788 14.6378 39.6689 11.7113L38.585 11.7973 38.5678 11.7973C38.4491 11.7966 38.3533 11.6997 38.354 11.581 38.3541 11.5492 38.3614 11.5179 38.3751 11.4893L38.8551 10.5069C38.9842 10.2456 39.2409 10.0712 39.5313 10.0476L40.4999 9.97874 43.829 2.9833C43.9877 2.5372 44.4004 2.23128 44.8734 2.20909L45.7508 2.14027C46.002 2.11618 46.1568 2.15403 46.2325 2.2607 46.3082 2.36737 46.2962 2.55834 46.1689 2.84738L43.0841 9.77056 44.9903 9.6226C45.1674 9.60811 45.3227 9.73994 45.3372 9.91704 45.342 9.97502 45.3308 10.0332 45.3052 10.0854L45.0402 10.6274C44.83 11.0556 44.4095 11.3413 43.934 11.3792L42.3116 11.5065 38.85 19.2693C38.6074 19.8078 38.5799 20.2482 38.7691 20.5407 38.9308 20.7902 39.256 20.933 39.6603 20.933 40.7305 20.933 42.241 18.7531 43.5537 16.7866 44.9456 14.6963 45.9985 12.3719 47.153 10.1387 47.3125 9.69415 47.7238 9.3893 48.1956 9.36625L48.975 9.30603C49.2279 9.28195 49.381 9.3198 49.4567 9.42647 49.5324 9.53314 49.5221 9.72411 49.393 10.0149L45.2639 18.9252C45.0058 19.4998 45.0781 19.7854 45.2639 20.0813 45.4067 20.3033 45.6923 20.4254 46.0656 20.4254 47.0119 20.4254 48.0253 18.7858 49.1109 17.0464 50.3324 15.092 51.3475 13.0894 52.9492 11.3878 54.2413 10.0217 56.0151 8.19805 58.1107 8.03804 59.7537 7.91245 60.5193 8.99291 60.5555 10.3985L61.1267 9.06001C61.3469 8.55419 61.66 8.31848 62.171 8.26859L63.1379 8.19117C63.3873 8.16708 63.5405 8.20665 63.6179 8.3116 63.6953 8.41655 63.6833 8.61612 63.5525 8.91377L59.7778 17.4507C59.5146 18.0254 59.4131 18.6207 59.6144 18.9355 59.7766 19.171 60.0441 19.312 60.3301 19.3123 61.4707 19.3123 62.8213 16.9811 63.9534 15.0369 64.5831 13.9547 65.1577 12.8967 65.7065 11.768 65.8098 11.5495 66.5324 9.60195 66.7474 9.58475L65.6997 9.66733 65.6825 9.66733C65.613 9.66621 65.5486 9.63079 65.5104 9.57271 65.4667 9.5091 65.4609 9.42686 65.4949 9.35765L65.9749 8.37698C66.1019 8.1149 66.3576 7.93903 66.6476 7.91417L67.5784 7.84019 70.9127 0.849913C71.072 0.403998 71.4841 0.097826 71.957 0.0739803L72.8327 0C73.0856-0.0240866 73.2388 0.0137638 73.3162 0.120433 73.3936 0.227102 73.3799 0.418075 73.2508 0.708834L70.166 7.64234 72.1015 7.49094C72.2786 7.47645 72.4339 7.60827 72.4484 7.78538 72.4532 7.84336 72.442 7.90154 72.4164 7.95374L72.1549 8.49053C71.9439 8.92056 71.5226 9.20807 71.0452 9.24754L69.3935 9.37829 65.9939 17.0103C65.7564 17.5385 65.7065 18.0994 65.9285 18.4108 66.1623 18.6988 66.5298 18.8431 66.8971 18.791 68.012 18.6826 69.2782 16.6576 70.4619 14.815 71.8194 12.7022 72.8586 10.3091 73.982 8.03288 74.141 7.588 74.5527 7.283 75.0246 7.26039L75.8023 7.19845C76.0552 7.17437 76.21 7.21222 76.2857 7.31889 76.3614 7.42556 76.3511 7.61653 76.2221 7.90729L72.5334 16.3944C72.2185 17.0929 72.1996 17.7295 72.351 17.9428 72.5674 18.2076 72.9076 18.3385 73.2457 18.2869 74.2349 18.1992 75.7971 15.8025 77.0548 13.8963 78.3847 11.8833 79.4239 9.66733 80.5336 7.51674 80.7865 7.01953 81.1082 6.78726 81.6106 6.74081L82.3968 6.67371C82.5156 6.66167 82.7943 6.6307 82.8992 6.82511 82.9818 6.97479 82.8992 7.14512 82.8304 7.28276 82.8132 7.31889 82.796 7.35158 82.784 7.38254L78.937 15.2967C78.6256 15.9247 78.3279 16.6731 78.2798 17.0808 78.2712 17.3905 78.34 17.6125 78.4845 17.7329 78.629 17.8533 78.8527 17.8809 79.1555 17.8155 80.346 17.5609 83.6665 14.175 85.8068 8.82946 85.8106 8.80525 85.8189 8.78194 85.8309 8.76064L85.8309 8.7486C85.4772 8.21687 85.3106 7.58245 85.3578 6.94555 85.4232 6.05606 85.9565 4.97561 87.2503 4.85517 87.6106 4.80194 87.9755 4.91453 88.243 5.16142 88.6163 5.51755 88.7798 6.15069 88.7333 7.05394 88.6755 7.52849 88.5677 7.99562 88.4116 8.44752 88.7514 8.51486 89.0989 8.53339 89.4439 8.50257 90.2353 8.42859 91.1214 8.02084 92.0246 7.31889 93.573 5.94251 95.1094 5.12529 96.3654 5.00657 97.2497 4.92399 97.9929 5.1184 98.4575 5.55368 98.8275 5.91868 99.0197 6.42703 98.9839 6.94555 98.9409 8.18256 97.7228 10.0097 95.1421 11.0764 94.17 11.4669 93.3391 11.3792 92.8848 11.1641 92.7114 11.1009 92.5709 10.9708 92.4943 10.8028 92.4726 10.7531 92.4785 10.6957 92.5098 10.6514 92.5631 10.5861 92.6646 10.5981 92.8315 10.6188 93.2238 10.6669 94.0358 10.7667 95.0509 9.96325 96.238 9.06861 96.9125 7.60793 96.9279 7.10899 96.9513 6.88588 96.8767 6.66359 96.7232 6.49994 96.5183 6.34249 96.2578 6.27539 96.0023 6.31413 93.7416 6.52575 89.9618 11.7147 89.874 14.7272 89.8551 15.3724 90.0065 15.8662 90.3248 16.1948 90.6431 16.5234 91.1334 16.6886 91.7786 16.6886 93.6711 16.6886 96.7163 14.9681 99.2523 11.1091 99.3469 10.9646 99.4863 10.7839 99.6102 10.8545 99.765 10.9439 99.6429 11.3293 99.5241 11.565ZM58.8401 10.1508C58.6863 10.0136 58.485 9.94202 58.2793 9.95121L58.1554 9.95121C55.6986 10.1869 52.2404 15.9419 52.1561 18.4125 52.1372 18.9562 52.2765 19.3949 52.5449 19.6478 52.7268 19.8195 52.9764 19.9004 53.2245 19.868 55.0568 19.696 59.0741 14.8907 59.1877 11.4463 59.2083 10.839 59.0896 10.383 58.8401 10.1508Z" fill="#1B2326" transform="matrix(1 0 0 1.00809 587 450.039)"/></g></svg>